<?xml version="1.0" encoding="UTF-8" standalone="no"?>
<svg
   xmlns:dc="http://purl.org/dc/elements/1.1/"
   xmlns:cc="http://creativecommons.org/ns#"
   xmlns:rdf="http://www.w3.org/1999/02/22-rdf-syntax-ns#"
   xmlns:svg="http://www.w3.org/2000/svg"
   xmlns="http://www.w3.org/2000/svg"
   xmlns:xlink="http://www.w3.org/1999/xlink"
   xml:space="preserve"
   enable-background="new 0 0 252.333 79.333"
   viewBox="0 0 252.333 79.333"
   height="68px"
   width="168px"
   y="0px"
   x="0px"
   id="Layer_1"
   version="1.1"><metadata
     id="metadata3450"><rdf:RDF><cc:Work
         rdf:about=""><dc:format>image/svg+xml</dc:format><dc:type
           rdf:resource="http://purl.org/dc/dcmitype/StillImage" /><dc:title></dc:title></cc:Work></rdf:RDF></metadata><defs
     id="defs3448" /><symbol
     viewBox="-124.161 -37.5 248.321 75"
     id="Paragon_x5F_Logo"><path
       id="path3396"
       d="M-57.535,15.609c0,3.05-3.743,3.948-5.699,3.948h-2.78V11.37h2.78   C-61.248,11.37-57.535,12.559-57.535,15.609z M-49.901,15.46c0-2.315-0.894-4.688-2.677-6.442   c-2.216-2.116-5.338-3.172-9.371-3.172h-4.066V-4.356h-7.507v29.433h10.274c4.199,0,7.474-0.827,9.822-2.481   S-49.901,18.337-49.901,15.46z"
       fill="#010101" /><path
       id="path3398"
       d="M-29.981,8.3v0.741h-1.295c-3.195,0-5.454-0.193-6.767-0.572c-2.408-0.684-3.611-2.086-3.611-4.212   c0-1.103,0.382-2.013,1.153-2.734c0.771-0.721,1.946-1.083,3.528-1.083c1.917,0,3.474,0.512,4.68,1.538   C-30.751,3.307-29.981,5.413-29.981,8.3z M-22.287-4.357h-7.511v4.346c-0.718-1.196-1.545-2.129-2.485-2.8   c-1.767-1.272-4.026-1.907-6.77-1.907c-3.464,0-6.115,0.904-7.959,2.707c-1.618,1.617-2.425,3.684-2.425,6.205   c0,2.591,0.864,4.697,2.594,6.315c2.405,2.216,6.371,3.328,11.898,3.328h4.285h0.678v1.236c0,2.063-0.963,3.508-2.886,4.332   c-1.056,0.452-2.282,0.674-3.677,0.674c-1.584,0-3.123-0.196-4.614-0.591c-1.491-0.399-3.086-1.066-4.783-2.01v6.026   c1.658,0.677,3.378,1.166,5.165,1.465c1.79,0.299,3.64,0.452,5.561,0.452c5.232,0,8.862-1.319,10.895-3.95   c1.355-1.734,2.033-4.159,2.033-7.281V-4.357z"
       fill="#010101" /><path
       id="path3400"
       d="M0.144,25.078l-0.282-5.28l-2.485,0.169c-1.807,0-3.332-0.621-4.574-1.867   c-1.694-1.697-2.541-4.375-2.541-8.032V-4.356h-7.693v29.434h6.969v-6.325c0.485,1.957,1.365,3.541,2.644,4.744   c1.432,1.282,3.239,1.923,5.424,1.923c0.299,0,0.711-0.04,1.239-0.116C-0.627,25.228-0.195,25.155,0.144,25.078z"
       fill="#010101" /><path
       id="path3402"
       d="M19.901,8.3v0.741h-1.296c-3.195,0-5.454-0.193-6.77-0.572C9.431,7.785,8.225,6.383,8.225,4.257   c0-1.103,0.385-2.013,1.156-2.734c0.771-0.721,1.947-1.083,3.528-1.083c1.917,0,3.474,0.512,4.68,1.538   C19.13,3.307,19.901,5.413,19.901,8.3z M27.594-4.357h-7.511v4.346c-0.717-1.196-1.545-2.129-2.485-2.8   c-1.767-1.272-4.026-1.907-6.773-1.907c-3.461,0-6.112,0.904-7.956,2.707C1.253-0.393,0.442,1.673,0.442,4.194   c0,2.591,0.867,4.697,2.598,6.315c2.405,2.216,6.371,3.328,11.898,3.328h4.285h0.678v1.236c0,2.063-0.963,3.508-2.887,4.332   c-1.056,0.452-2.282,0.674-3.677,0.674c-1.588,0-3.123-0.196-4.614-0.591c-1.491-0.399-3.086-1.066-4.783-2.01v6.026   c1.658,0.677,3.378,1.166,5.165,1.465c1.787,0.299,3.641,0.452,5.56,0.452c5.232,0,8.863-1.319,10.895-3.95   c1.355-1.734,2.033-4.159,2.033-7.281V-4.357z"
       fill="#010101" /><path
       id="path3404"
       d="M59.529-3.057c-2.063-0.492-4.063-0.877-5.999-1.153c-1.937-0.279-3.707-0.415-5.305-0.415   c-5.165,0-9.274,1.292-12.317,3.88c-3.139,2.744-4.707,6.5-4.707,11.277c0,4.837,1.591,8.573,4.776,11.208   c3.182,2.634,7.543,3.953,13.081,3.953c1.817,0,3.455-0.093,4.916-0.282c1.462-0.186,2.976-0.512,4.544-0.977L58.15,18.71   c-1.535,0.651-4.514,1.717-9.208,1.717c-3.285,0-10.028-2.073-10.028-9.927c0-3.133,0.99-5.434,2.833-7.309   c3.385-3.444,9.533-2.355,10.271-2.109v6.508h-5.614v5.181h13.124V-3.057z"
       fill="#010101" /><path
       id="path3406"
       d="M85.308,10.353c0,2.897-0.635,5.555-1.91,7.286c-1.276,1.734-2.983,2.601-5.119,2.601   c-1.953,0-3.564-0.734-4.837-2.202c-1.501-1.697-2.252-4.486-2.252-7.685c0-3.129,0.751-5.897,2.252-7.631   c1.312-1.505,2.923-2.259,4.837-2.259c2.136,0,3.843,0.867,5.119,2.601C84.673,4.794,85.308,7.45,85.308,10.353z M93.363,10.353   c0-4.78-1.392-8.487-4.182-11.121c-2.784-2.631-6.418-3.95-10.902-3.95c-4.521,0-8.138,1.279-10.849,3.84   c-2.863,2.707-4.291,6.451-4.291,11.231c0,4.74,1.402,8.434,4.205,11.088c2.807,2.654,6.451,3.979,10.935,3.979   s8.078-1.279,10.789-3.837C91.931,18.873,93.363,15.13,93.363,10.353z"
       fill="#010101" /><path
       id="path3408"
       d="M124.028-4.356h-7.693v18.428c0,1.588-0.375,2.91-1.129,3.97c-0.864,1.209-2.146,1.814-3.837,1.814   c-2.149,0-3.88-0.89-5.195-2.664c-1.13-1.551-1.694-3.232-1.694-5.046V-4.356h-7.693v29.344h7.421v-4.547   c1.318,1.903,2.973,3.265,4.969,4.082c1.432,0.598,2.92,0.897,4.461,0.897c3.086,0,5.59-0.81,7.51-2.435   c1.92-1.624,2.88-3.886,2.88-6.793V-4.356z"
       fill="#010101" /><path
       id="path3410"
       d="M-65.43-19.947c0-1.095-0.401-1.981-1.199-2.657c-0.87-0.737-2.111-1.103-3.718-1.103   c-0.588,0-1.157,0.054-1.702,0.164c-0.546,0.107-1.096,0.268-1.645,0.473l0.275,2.249c0.515-0.237,1.065-0.424,1.641-0.569   c0.576-0.141,1.096-0.214,1.55-0.214c0.653,0,1.16,0.157,1.523,0.469c0.363,0.313,0.546,0.675,0.546,1.08   c0,0.664-0.42,1.215-1.256,1.657c-0.603,0.282-1.054,0.499-1.348,0.645c-1.068,0.531-1.805,1.015-2.213,1.458   c-0.515,0.565-0.775,1.275-0.775,2.137c0,0.882,0.252,1.646,0.756,2.283c0.709,0.897,1.809,1.348,3.297,1.348   c0.671,0,1.313-0.042,1.912-0.119c0.603-0.08,1.191-0.225,1.767-0.431l-0.275-2.069c-0.393,0.164-0.851,0.31-1.374,0.443   c-0.519,0.133-1.004,0.198-1.443,0.198c-0.713,0-1.236-0.161-1.569-0.478c-0.244-0.237-0.37-0.53-0.37-0.885   c0-0.455,0.187-0.847,0.554-1.18c0.233-0.21,0.622-0.431,1.16-0.664c1.374-0.588,2.294-1.088,2.763-1.493   C-65.811-17.867-65.43-18.783-65.43-19.947z"
       fill="#3654A1" /><path
       id="path3412"
       d="M-52.234-17.119c0,1.889-0.466,3.225-1.401,4.008c-0.587,0.493-1.305,0.737-2.148,0.737   c-0.836,0-1.546-0.244-2.134-0.737c-0.942-0.783-1.416-2.118-1.416-4.008c0-1.886,0.466-3.225,1.397-4.008   c0.588-0.492,1.306-0.737,2.153-0.737c0.832,0,1.542,0.244,2.133,0.737C-52.707-20.344-52.234-19.004-52.234-17.119z    M-49.478-17.119c0-2.183-0.652-3.866-1.95-5.042c-1.141-1.031-2.592-1.546-4.355-1.546c-1.767,0-3.214,0.508-4.34,1.527   c-1.309,1.176-1.966,2.867-1.966,5.061c0,2.187,0.649,3.866,1.946,5.046c1.142,1.031,2.592,1.546,4.359,1.546   c1.763,0,3.21-0.512,4.336-1.527C-50.135-13.234-49.478-14.92-49.478-17.119z"
       fill="#3654A1" /><polygon
       id="polygon3414"
       points="-38.204,-12.817 -42.8,-12.817 -42.8,-15.985 -38.426,-15.985 -38.426,-18.092 -42.8,-18.092    -42.8,-23.577 -45.399,-23.577 -45.399,-10.657 -38.204,-10.657  "
       fill="#3654A1" /><polygon
       id="polygon3416"
       points="-24.258,-12.947 -27.976,-12.947 -27.976,-23.577 -30.575,-23.577 -30.575,-12.947    -34.293,-12.947 -34.293,-10.657 -24.258,-10.657  "
       fill="#3654A1" /><polygon
       id="polygon3418"
       points="-2.251,-10.657 -5.723,-23.577 -9.033,-23.577 -11.003,-15.165 -11.441,-12.683 -11.884,-15.165    -13.778,-23.577 -17.14,-23.577 -20.69,-10.657 -17.949,-10.657 -16.041,-18.375 -15.487,-21.291 -14.934,-18.375 -13.208,-10.657    -9.678,-10.657 -7.857,-18.375 -7.323,-21.291 -6.754,-18.375 -4.88,-10.657  "
       fill="#3654A1" /><path
       id="path3420"
       d="M8.393-18.535l-1.893,5.279L4.68-18.535H8.393z M13.192-23.577h-2.939l-1.088,2.909H3.852l-1.084-2.909   h-2.794l5.13,12.92h2.977L13.192-23.577z"
       fill="#3654A1" /><path
       id="path3422"
       d="M23.631-14.435c0,0.404-0.107,0.748-0.317,1.031c-0.359,0.481-0.989,0.722-1.89,0.722h-1.409v-3.539h1.409   c0.756,0,1.329,0.202,1.725,0.607C23.47-15.283,23.631-14.89,23.631-14.435z M27.253-23.577h-2.928l-1.656,4.107   c-0.172,0.42-0.386,0.729-0.637,0.924c-0.252,0.199-0.592,0.298-1.019,0.298h-0.996v-5.329h-2.599v12.92h4.565   c1.584,0,2.729-0.362,3.443-1.087c0.588-0.592,0.882-1.393,0.882-2.413c0-0.935-0.297-1.672-0.9-2.214   c-0.416-0.366-0.943-0.63-1.58-0.79c0.576-0.172,1.023-0.642,1.343-1.405L27.253-23.577z"
       fill="#3654A1" /><polygon
       id="polygon3424"
       points="39.824,-23.577 32.152,-23.577 32.152,-10.657 39.824,-10.657 39.824,-12.947 34.751,-12.947    34.751,-15.855 39.366,-15.855 39.366,-17.962 34.751,-17.962 34.751,-21.291 39.824,-21.291  "
       fill="#3654A1" /><path
       id="path3426"
       d="M64.739-23.008c-0.82-0.222-1.615-0.394-2.386-0.515c-0.774-0.122-1.477-0.183-2.115-0.183   c-2.061,0-3.694,0.568-4.908,1.71c-1.248,1.18-1.874,2.806-1.874,4.878c0,2.111,0.634,3.737,1.905,4.878   c1.268,1.141,3.004,1.714,5.21,1.714c0.721,0,1.374-0.042,1.958-0.122c0.58-0.076,1.183-0.221,1.809-0.431l-0.149-2.306   c-0.61,0.279-1.225,0.477-1.836,0.588c-0.614,0.111-1.225,0.164-1.84,0.164c-1.309,0-2.355-0.401-3.133-1.206   c-0.779-0.805-1.168-1.9-1.168-3.29c0-1.362,0.378-2.439,1.134-3.233c0.756-0.79,1.775-1.187,3.064-1.187   c0.405,0,0.721,0.015,0.946,0.046l0.783,0.214v3.095h-2.626v2.026h5.225V-23.008z"
       fill="#010101" /><path
       id="path3428"
       d="M76.287-14.435c0,0.404-0.107,0.748-0.317,1.031c-0.359,0.481-0.988,0.722-1.889,0.722h-1.408v-3.539h1.408   c0.752,0,1.328,0.202,1.725,0.607C76.127-15.283,76.287-14.89,76.287-14.435z M79.909-23.577h-2.927l-1.657,4.107   c-0.172,0.42-0.386,0.729-0.638,0.923c-0.252,0.199-0.591,0.298-1.019,0.298h-0.996v-5.329h-2.599v12.92h4.565   c1.584,0,2.729-0.363,3.443-1.088c0.588-0.592,0.882-1.393,0.882-2.413c0-0.935-0.298-1.671-0.901-2.214   c-0.416-0.366-0.943-0.63-1.58-0.79c0.576-0.172,1.023-0.641,1.343-1.404L79.909-23.577z"
       fill="#010101" /><path
       id="path3430"
       d="M92.656-17.119c0,1.89-0.469,3.225-1.397,4.008c-0.592,0.493-1.309,0.737-2.153,0.737   c-0.832,0-1.546-0.244-2.134-0.737c-0.943-0.783-1.416-2.118-1.416-4.008c0-1.885,0.466-3.225,1.397-4.007   c0.591-0.492,1.305-0.736,2.152-0.736c0.832,0,1.546,0.244,2.134,0.736C92.182-20.344,92.656-19.004,92.656-17.119z M95.411-17.119   c0-2.182-0.652-3.866-1.95-5.041c-1.138-1.031-2.592-1.546-4.355-1.546c-1.763,0-3.21,0.508-4.336,1.526   c-1.313,1.176-1.97,2.867-1.97,5.061c0,2.187,0.649,3.867,1.951,5.046c1.137,1.031,2.591,1.546,4.355,1.546   c1.764,0,3.21-0.512,4.335-1.527C94.755-13.233,95.411-14.92,95.411-17.119z"
       fill="#010101" /><path
       id="path3432"
       d="M110.21-18.657c0-1.34-0.278-2.409-0.843-3.205c-0.87-1.233-2.366-1.844-4.489-1.844   c-1.37,0-2.473,0.237-3.305,0.718c-1.401,0.808-2.1,2.255-2.1,4.331v8.001h2.603v-8.001c0-1.034,0.237-1.794,0.717-2.286   c0.48-0.493,1.165-0.737,2.05-0.737c1.13,0,1.92,0.385,2.363,1.16c0.271,0.466,0.404,1.088,0.404,1.863v8.001h2.599V-18.657z"
       fill="#010101" /><path
       id="path3434"
       d="M121.405-14.623c0,0.576-0.172,1.035-0.516,1.367c-0.397,0.378-0.958,0.573-1.687,0.573H118v-4.004h1.202   c0.74,0,1.309,0.217,1.706,0.664C121.241-15.657,121.405-15.188,121.405-14.623z M124.161-14.695c0-1.007-0.332-1.889-0.992-2.638   c-0.824-0.923-1.989-1.385-3.488-1.385H118v-4.859h-2.599v12.92h3.809c1.557,0,2.775-0.359,3.645-1.08   C123.726-12.454,124.161-13.443,124.161-14.695z"
       fill="#010101" /><path
       id="path3436"
       d="M-92.295-9.215c-0.528,3.191-1.773,6.327-4.783,9.964c-0.974,1.177-1.953,2.108-3.558,3.557   c-3.698,3.338-4.917,5.611-5.261,8.465c-0.498,4.126,1.818,10.13,3.448,12.305h-7.203c-3.303-4.653-5.011-8.53-4.314-14.347   c0.345-2.882,1.776-6.337,4.796-9.98c0.971-1.172,2.192-2.296,3.545-3.542c3.732-3.435,4.767-5.852,5.261-8.465   c0.993-5.259-1.488-9.57-3.435-12.32h9.623C-92.7-20.069-91.395-14.647-92.295-9.215z"
       fill="#3654A1" /><g
       id="g3438"><path
         id="path3440"
         d="M-103.989-14.451c0,9.017-7.968,11.213-11.067,17.193l0,0l-9.104-0.005l0,0    c1.284-5.386,12.212-10.022,12.212-17.26c0-6.671-10.65-7.039-10.65-7.039v-0.901c0-1.913,0.011-13.782,0.011-13.797l-0.011-1.227    h1.232c2.367,0,2.822-0.014,4.998-0.014h1.216v1.22c0,0.991,0,7.293,0,7.478c0,0.096,0,0.124,0,0.117c0,0.159,0,0.508,0,1.23    C-111.864-26.425-103.989-21.783-103.989-14.451z"
         fill="#010101" /></g><path
       id="path3442"
       d="M-87.678,17.86c0-2.178-0.011-3.532-0.011-5.252c-0.002-0.456-0.002-0.906,0-1.35   c-4.768,0-6.135,2.136-6.135,4.409c0,7.56,10.274,17.223,12.923,19.767l2.006,2.066h-2.884c-1.601,0-4.482,0-5.871,0h-0.522   l-0.362-0.375c-2.254-2.391-5.099-5.573-7.636-8.879l0,0.002l-0.038-0.051c-0.56-0.73,1.235,1.837-1.623-2.202   c-4.672-6.602-10.04-22.649,13.077-22.649c1.299,0,2.463,0.036,3.3,0.036h1.219V4.6c0,3.562,0.061,8.911,0.061,12.567   c0,0.247,0,0.478,0,0.693v0.863l-7.505,0.005V17.86z"
       fill="#010101" /></symbol><use
     id="use3444"
     overflow="visible"
     transform="matrix(1 0 0 -1 126.8255 40.1692)"
     y="-37.5"
     x="-124.161"
     height="75"
     width="248.321"
     xlink:href="#Paragon_x5F_Logo" /></svg>